<?xml version="1.0" encoding="UTF-8" standalone="no"?>
<svg
   xmlns:dc="http://purl.org/dc/elements/1.1/"
   xmlns:cc="http://creativecommons.org/ns#"
   xmlns:rdf="http://www.w3.org/1999/02/22-rdf-syntax-ns#"
   xmlns:svg="http://www.w3.org/2000/svg"
   xmlns="http://www.w3.org/2000/svg"
   xmlns:sodipodi="http://sodipodi.sourceforge.net/DTD/sodipodi-0.dtd"
   xmlns:inkscape="http://www.inkscape.org/namespaces/inkscape"
   inkscape:version="1.0 (4035a4fb49, 2020-05-01)"
   sodipodi:docname="lock.svg"
   xml:space="preserve"
   style="enable-background:new 6 -6 512 512;"
   viewBox="6 -6 512 512"
   y="0px"
   x="0px"
   id="Capa_1"
   version="1.1"><metadata
   id="metadata323"><rdf:RDF><cc:Work
       rdf:about=""><dc:format>image/svg+xml</dc:format><dc:type
         rdf:resource="http://purl.org/dc/dcmitype/StillImage" /><dc:title></dc:title></cc:Work></rdf:RDF></metadata><defs
   id="defs321" /><sodipodi:namedview
   inkscape:current-layer="g316"
   inkscape:window-maximized="0"
   inkscape:window-y="0"
   inkscape:window-x="0"
   inkscape:cy="237.74371"
   inkscape:cx="130.81344"
   inkscape:zoom="1.6601562"
   showgrid="false"
   id="namedview319"
   inkscape:window-height="888"
   inkscape:window-width="1815"
   inkscape:pageshadow="2"
   inkscape:pageopacity="0"
   guidetolerance="10"
   gridtolerance="10"
   objecttolerance="10"
   borderopacity="1"
   bordercolor="#666666"
   pagecolor="#ffffff" />
<style
   id="style2"
   type="text/css">
	.st0{fill:none;stroke:url(#SVGID_1_);stroke-width:3;stroke-linecap:round;stroke-linejoin:round;stroke-miterlimit:10;}
	.st1{opacity:0.2;fill:#1E1A21;}
	.st2{fill:url(#SVGID_2_);}
	.st3{fill:url(#SVGID_3_);}
	.st4{fill:url(#SVGID_4_);}
	.st5{opacity:0.2;fill:#2E3191;enable-background:new    ;}
	.st6{fill:url(#SVGID_5_);}
	.st7{fill:url(#SVGID_6_);}
	.st8{fill:url(#SVGID_7_);}
	.st9{fill:#031653;}
	.st10{fill:url(#SVGID_8_);}
	.st11{fill:url(#SVGID_9_);}
	.st12{fill:url(#SVGID_10_);}
	.st13{fill:url(#SVGID_11_);}
	.st14{fill:url(#SVGID_12_);}
	.st15{fill:url(#SVGID_13_);}
	.st16{opacity:0.25;fill:url(#SVGID_14_);}
	.st17{fill:url(#SVGID_15_);}
	.st18{fill:url(#SVGID_16_);}
	.st19{opacity:0.6;fill:url(#SVGID_17_);}
	.st20{fill:url(#SVGID_18_);}
	.st21{fill:url(#SVGID_19_);}
	.st22{fill:url(#SVGID_20_);}
	.st23{fill:url(#SVGID_21_);}
	.st24{fill:url(#SVGID_22_);}
	.st25{fill:#3D20B7;}
	.st26{fill:url(#SVGID_23_);}
	.st27{fill:url(#SVGID_24_);}
</style>
<linearGradient
   y2="451.2969"
   x2="197.7694"
   y1="451.2969"
   x1="197.7694"
   gradientUnits="userSpaceOnUse"
   id="SVGID_1_">
	<stop
   id="stop4"
   style="stop-color:#3F00FC"
   offset="2.945171e-007" />
	<stop
   id="stop6"
   style="stop-color:#3F02F7"
   offset="0.2077" />
	<stop
   id="stop8"
   style="stop-color:#3E09E7"
   offset="0.4672" />
	<stop
   id="stop10"
   style="stop-color:#3E14CE"
   offset="0.7531" />
	<stop
   id="stop12"
   style="stop-color:#3D20B2"
   offset="1" />
</linearGradient>
<path
   id="path15"
   d="M197.8,451.3"
   class="st0" />
<g
   id="g316">
	<path
   id="path17"
   d="M355.4,306.1l57.2,2.5c0,0,8.9-1.3,14-7.1c5-5.8-1.2-21.6-12-25.4c-10.9-3.7-88.3-7.7-88.3-7.7L355.4,306.1z"
   class="st1" />
	<g
   id="g91">
		
			<linearGradient
   gradientTransform="matrix(123.428 0 0 -179.065 -411.65 90496.2188)"
   y2="503.7252"
   x2="6.3502"
   y1="504.4464"
   x1="5.7273"
   gradientUnits="userSpaceOnUse"
   id="SVGID_2_">
			<stop
   id="stop19"
   style="stop-color:#463780"
   offset="0" />
			<stop
   id="stop21"
   style="stop-color:#382E68"
   offset="0.1433" />
			<stop
   id="stop23"
   style="stop-color:#292550"
   offset="0.3308" />
			<stop
   id="stop25"
   style="stop-color:#1F1F3F"
   offset="0.5289" />
			<stop
   id="stop27"
   style="stop-color:#191B34"
   offset="0.7426" />
			<stop
   id="stop29"
   style="stop-color:#171A31"
   offset="1" />
		</linearGradient>
		<path
   id="path32"
   d="M367.5,206.1l-67.8-38c-1.9-1-3.6-1-4.7-0.3l-16.6,9.7l3.2,2.7l11.7,8.4v58.6c0,3.9,2.9,8.8,6.5,10.9l56,31.4    l-1.3,14.1l1,2.7l16.8-9.7v0c1.2-0.6,1.9-2.1,1.9-4v-75.4C374,213,371.1,208.1,367.5,206.1z"
   class="st2" />
		
			<linearGradient
   gradientTransform="matrix(107.17 0 0 -168.6487 -316.669 85236.6875)"
   y2="503.6027"
   x2="6.2917"
   y1="504.3669"
   x1="5.5758"
   gradientUnits="userSpaceOnUse"
   id="SVGID_3_">
			<stop
   id="stop34"
   style="stop-color:#268ECD"
   offset="0" />
			<stop
   id="stop36"
   style="stop-color:#0974F9"
   offset="0.3644" />
			<stop
   id="stop38"
   style="stop-color:#1195F7"
   offset="0.5403" />
			<stop
   id="stop40"
   style="stop-color:#076CF9"
   offset="0.6698" />
			<stop
   id="stop42"
   style="stop-color:#325FAC"
   offset="1" />
		</linearGradient>
		<path
   id="path45"
   d="M278.7,254.6c0,3.9,2.9,8.8,6.5,10.9l67.7,41.1c2.2,0.5,6.6-2.7,6.6-6.7v-74.2c0-4.6-3.5-10-7-11.9    l-66.9-37.2c-3.9-2.1-9.1,1-9.1,5.1L278.7,254.6z"
   class="st3" />
		
			<linearGradient
   gradientTransform="matrix(104.176 0 0 -167.1217 -298.705 84465.4453)"
   y2="504.3783"
   x2="5.6597"
   y1="503.5539"
   x1="6.156"
   gradientUnits="userSpaceOnUse"
   id="SVGID_4_">
			<stop
   id="stop47"
   style="stop-color:#4F3E90"
   offset="0" />
			<stop
   id="stop49"
   style="stop-color:#171A31"
   offset="1" />
		</linearGradient>
		<path
   id="path52"
   d="M276.4,256.9c0,3.9,2.9,8.8,6.5,10.9l67.8,38c3.6,2,6.5,0.3,6.5-3.6v-75.4c0-3.9-2.9-8.8-6.5-10.9l-67.8-38    c-3.6-2-6.5-0.3-6.5,3.6V256.9L276.4,256.9z"
   class="st4" />
		<path
   id="path54"
   d="M309,183.1l8.6-5l-7.9-4.4l-1.7,5.9L309,183.1z M352.9,207.7l8.6-4.9l-7.9-4.5l-1.7,5.9L352.9,207.7z"
   class="st5" />
		
			<linearGradient
   gradientTransform="matrix(71.661 0 0 -94.1923 -74.309 47509.8125)"
   y2="502.5643"
   x2="5.9846"
   y1="502.5643"
   x1="5.2105"
   gradientUnits="userSpaceOnUse"
   id="SVGID_5_">
			<stop
   id="stop56"
   style="stop-color:#D5E8F1"
   offset="0" />
			<stop
   id="stop58"
   style="stop-color:#94BCFF"
   offset="1" />
		</linearGradient>
		<path
   id="path61"
   d="M354.6,184.4c0-17.7-10.9-37.7-24.8-45.5c-7.1-4-14.3-4.3-20.2-1.1c-6.7,3.7-10.5,11.7-10.5,22V181h0.1    c0.1,0.8,0.6,1.6,1.7,2.2c2.2,1.3,6,1.3,8.2,0c1.2-0.7,1.8-1.7,1.7-2.7v-20.7c0-6,1.7-10.6,4.7-12.3c2.7-1.5,6.1-0.2,8.5,1.1    c10.3,5.8,19,22.1,19,35.8v21.1c0.1,0.8,0.6,1.6,1.7,2.2c2.2,1.3,6,1.3,8.2,0c1.1-0.6,1.7-1.4,1.7-2.2L354.6,184.4    C354.7,184.4,354.6,184.4,354.6,184.4z"
   class="st6" />
		<path
   id="path63"
   d="M334.6,142.2c10.2,11.3,17.2,27.9,17.2,43.1v22.9c0.4-0.2,0.8-0.3,1.2-0.5c1.1-0.6,1.7-1.4,1.7-2.2v-21.2    C354.6,168.8,346.1,151.4,334.6,142.2L334.6,142.2z M312.7,146.9c-3.6,2-5.6,7.5-5.6,14.8v22.2c0.7-0.2,1.5-0.4,2.1-0.7    c1.2-0.7,1.8-1.7,1.7-2.7v-20.7c0-6,1.7-10.6,4.7-12.3c2-1.1,4.4-0.7,6.5,0.2C319.2,146.3,315.6,145.2,312.7,146.9L312.7,146.9z"
   class="st5" />
		
			<linearGradient
   gradientTransform="matrix(17.861 0 0 -35.9945 261.861 18179.6777)"
   y2="498.0668"
   x2="3.4286"
   y1="498.7139"
   x1="2.6523"
   gradientUnits="userSpaceOnUse"
   id="SVGID_6_">
			<stop
   id="stop65"
   style="stop-color:#BEB3ED"
   offset="5.148000e-002" />
			<stop
   id="stop67"
   style="stop-color:#E4E0FF"
   offset="0.1809" />
			<stop
   id="stop69"
   style="stop-color:#DED5F9"
   offset="0.3754" />
			<stop
   id="stop71"
   style="stop-color:#DED5F9"
   offset="0.4362" />
			<stop
   id="stop73"
   style="stop-color:#A89AE4"
   offset="0.4851" />
			<stop
   id="stop75"
   style="stop-color:#957EDC"
   offset="0.7084" />
			<stop
   id="stop77"
   style="stop-color:#6E70C5"
   offset="1" />
		</linearGradient>
		<path
   id="path80"
   d="M316.3,228c-3.8-2.2-6.9-0.4-6.9,3.9c0,3,1.5,6.4,3.6,8.8v9.3c0,1.6,1.3,3.6,3,4.5c1.7,0.9,3,0.4,3-1.2v-9    c2.5,0.2,4.2-1.5,4.2-4.7C323.2,235.3,320.1,230.1,316.3,228z"
   class="st7" />
		
			<linearGradient
   gradientTransform="matrix(17.861 0 0 -35.9945 261.861 18179.6777)"
   y2="498.0668"
   x2="3.4286"
   y1="498.7139"
   x1="2.6523"
   gradientUnits="userSpaceOnUse"
   id="SVGID_7_">
			<stop
   id="stop82"
   style="stop-color:#4F3E90"
   offset="0" />
			<stop
   id="stop84"
   style="stop-color:#171A31"
   offset="1" />
		</linearGradient>
		<path
   id="path87"
   d="M316.3,228c-3.8-2.2-6.9-0.4-6.9,3.9c0,3,1.5,6.4,3.6,8.8v9.3c0,1.6,1.3,3.6,3,4.5c1.7,0.9,3,0.4,3-1.2v-9    c2.5,0.2,4.2-1.5,4.2-4.7C323.2,235.3,320.1,230.1,316.3,228z"
   class="st8" />
		<path
   id="path89"
   d="M319,244.3v9.1l-0.5-0.2c-1.7-0.9-3-3-3-4.5v-9.3c-2.2-2.5-3.6-5.9-3.6-8.8c0-1.4,0.3-2.6,1-3.4    c1-0.1,2.2,0.2,3.5,0.9c3.8,2.2,6.9,7.3,6.9,11.6c0,1.4-0.3,2.6-1,3.4h-0.8L319,244.3L319,244.3z"
   class="st9" />
	</g>
	
</g>
</svg>
